<svg width="42" height="42" viewBox="0 0 42 42" fill="none" xmlns="http://www.w3.org/2000/svg">
<rect width="42" height="42" rx="10" fill="#3E284F"/>
<path d="M22 19C22.55 19 23 18.55 23 18V16H25C25.55 16 26 15.55 26 15C26 14.45 25.55 14 25 14H23V12C23 11.45 22.55 11 22 11C21.45 11 21 11.45 21 12V14H19C18.45 14 18 14.45 18 15C18 15.55 18.45 16 19 16H21V18C21 18.55 21.45 19 22 19ZM17 28C15.9 28 15.01 28.9 15.01 30C15.01 31.1 15.9 32 17 32C18.1 32 19 31.1 19 30C19 28.9 18.1 28 17 28ZM27 28C25.9 28 25.01 28.9 25.01 30C25.01 31.1 25.9 32 27 32C28.1 32 29 31.1 29 30C29 28.9 28.1 28 27 28ZM18.1 23H25.55C26.3 23 26.96 22.59 27.3 21.97L30.54 15.83C30.79 15.35 30.62 14.75 30.14 14.49C29.65 14.22 29.04 14.41 28.78 14.9L25.55 21H18.53L14.27 12H12C11.45 12 11 12.45 11 13C11 13.55 11.45 14 12 14H13L16.6 21.59L15.25 24.03C14.52 25.37 15.48 27 17 27H28C28.55 27 29 26.55 29 26C29 25.45 28.55 25 28 25H17L18.1 23Z" fill="white"/>
</svg>
