<svg width="26" height="24" viewBox="0 0 26 24" fill="none" xmlns="http://www.w3.org/2000/svg">
<path d="M2.2125 14.85C3.2 14.4875 3.675 13.875 4.7 13.875C6.1875 13.875 6.475 15.125 8.8625 15.125C11.3 15.125 11.475 13.875 13.025 13.875C14.5125 13.875 14.8 15.125 17.1875 15.125C19.625 15.125 19.8 13.875 21.35 13.875C22.3625 13.875 22.8125 14.45 23.7625 14.825C24.6 15.15 25.5 14.5125 25.5 13.625C25.5 13.0875 25.15 12.6125 24.6375 12.425C23.425 11.9875 23.1125 11.3875 21.325 11.3875C18.8875 11.3875 18.7125 12.6375 17.1625 12.6375C15.675 12.6375 15.3875 11.3875 13 11.3875C10.5625 11.3875 10.3875 12.6375 8.8375 12.6375C7.35 12.6375 7.0625 11.3875 4.675 11.3875C2.7375 11.3875 2.225 12.175 1.325 12.5C0.8375 12.675 0.5125 13.15 0.5125 13.675C0.5125 14.5375 1.3875 15.15 2.2125 14.85ZM0.5 20.75C0.5 22.125 1.625 23.25 3 23.25H23C24.375 23.25 25.5 22.125 25.5 20.75V19.5C25.5 18.125 24.375 17 23 17H3C1.625 17 0.5 18.125 0.5 19.5V20.75ZM25.5 8.25C25.525 3.25 20.15 0.75 13 0.75C5.8625 0.75 0.5 3.25 0.5 8.25C0.5 8.9375 1.0625 9.5 1.75 9.5H24.25C24.9375 9.5 25.5 8.9375 25.5 8.25Z" fill="white"/>
</svg>
